<svg width="24" height="24" viewBox="0 0 24 24" fill="none" xmlns="http://www.w3.org/2000/svg">
<path d="M6.5 2C5.83696 2 5.20107 2.26339 4.73223 2.73223C4.26339 3.20107 4 3.83696 4 4.5V19.5C4 20.163 4.26339 20.7989 4.73223 21.2678C5.20107 21.7366 5.83696 22 6.5 22H19.75C19.9489 22 20.1397 21.921 20.2803 21.7803C20.421 21.6397 20.5 21.4489 20.5 21.25C20.5 21.0511 20.421 20.8603 20.2803 20.7197C20.1397 20.579 19.9489 20.5 19.75 20.5H6.5C6.23478 20.5 5.98043 20.3946 5.79289 20.2071C5.60536 20.0196 5.5 19.7652 5.5 19.5H19.75C19.9489 19.5 20.1397 19.421 20.2803 19.2803C20.421 19.1397 20.5 18.9489 20.5 18.75V4.5C20.5 4.1717 20.4353 3.84661 20.3097 3.54329C20.1841 3.23998 19.9999 2.96438 19.7678 2.73223C19.5356 2.50009 19.26 2.31594 18.9567 2.1903C18.6534 2.06466 18.3283 2 18 2H6.5ZM8 5H16C16.2652 5 16.5196 5.10536 16.7071 5.29289C16.8946 5.48043 17 5.73478 17 6V7C17 7.26522 16.8946 7.51957 16.7071 7.70711C16.5196 7.89464 16.2652 8 16 8H8C7.73478 8 7.48043 7.89464 7.29289 7.70711C7.10536 7.51957 7 7.26522 7 7V6C7 5.73478 7.10536 5.48043 7.29289 5.29289C7.48043 5.10536 7.73478 5 8 5Z" fill="#A3A3A3"/>
</svg>
